<?xml version="1.0" encoding="utf-8"?>
<!-- Generator: Adobe Illustrator 16.0.0, SVG Export Plug-In . SVG Version: 6.00 Build 0)  -->
<!DOCTYPE svg PUBLIC "-//W3C//DTD SVG 1.1//EN" "http://www.w3.org/Graphics/SVG/1.1/DTD/svg11.dtd">
<svg version="1.1" id="Calque_1" xmlns="http://www.w3.org/2000/svg" xmlns:xlink="http://www.w3.org/1999/xlink" x="0px" y="0px"
	 width="433.957px" height="433.959px" viewBox="0 0 433.957 433.959" enable-background="new 0 0 433.957 433.959"
	 xml:space="preserve">
<g>
	<path fill="#212121" d="M216.974,0C97.141,0,0,97.143,0,216.98c0,119.84,97.141,216.979,216.974,216.979
		c119.835,0,216.983-97.139,216.983-216.979C433.957,97.143,336.809,0,216.974,0z M118.594,235.171
		c-2.362,5.6-5.735,10.523-10.11,14.768c-4.465,4.379-9.652,7.684-15.561,9.918c-3.458,1.357-6.631,2.266-9.52,2.723
		c-2.889,0.463-8.404,0.691-16.546,0.691H37.839v-91.587h30.923c12.474,0,22.343,1.869,29.61,5.613
		c7.266,3.741,13.043,9.247,17.333,16.512c4.288,7.265,6.434,15.189,6.434,23.767C122.139,223.703,120.958,229.566,118.594,235.171z
		 M151.815,263.4h-13.131v-91.716h13.131V263.4z M211.922,257.556c-4.923,4.6-11.327,6.896-19.205,6.896
		c-9.06,0-17.312-2.787-24.75-8.354v-16.678c7.091,8.986,15.296,13.475,24.618,13.475c4.115,0,7.541-1.146,10.276-3.432
		c2.735-2.293,4.104-5.16,4.104-8.605c0-5.582-4.027-10.879-12.08-15.887l-9.979-6.062c-6.26-3.822-10.713-7.582-13.36-11.281
		c-2.649-3.698-3.972-7.955-3.972-12.77c0-7.223,2.504-13.086,7.518-17.595c5.012-4.507,11.521-6.762,19.531-6.762
		c7.659,0,14.682,2.149,21.074,6.451v14.903c-6.608-6.359-13.721-9.536-21.338-9.536c-4.289,0-7.812,0.991-10.57,2.975
		c-2.758,1.984-4.135,4.524-4.135,7.618c0,2.748,1.014,5.32,3.047,7.717c2.03,2.399,5.297,4.916,9.797,7.554l10.03,5.936
		c11.188,6.68,16.78,15.184,16.78,25.518C219.308,246.99,216.847,252.962,211.922,257.556z M293.893,263.4l-46.878-45.301V263.4
		h-13.13v-91.716h13.13v41.953l38.606-41.953h16.411l-39.783,43.528l49.566,48.188H293.893z M350.06,264.453
		c-13.821,0-25.337-4.432-34.543-13.293c-9.21-8.863-13.812-19.971-13.812-33.322c0-13.699,4.636-25.034,13.907-34.009
		c9.273-8.972,20.997-13.458,35.169-13.458c14.171,0,25.972,4.486,35.397,13.458c9.424,8.975,14.14,20.222,14.14,33.747
		c0,13.522-4.759,24.722-14.27,33.585C376.532,260.021,364.539,264.453,350.06,264.453z"/>
	<path fill="#212121" d="M376.526,192.791c-6.846-6.632-15.252-9.946-25.222-9.946c-10.494,0-19.118,3.283-25.875,9.848
		c-6.756,6.564-10.135,14.946-10.135,25.145c0,9.891,3.39,18.123,10.167,24.688c6.775,6.564,15.262,9.846,25.448,9.846
		c10.234,0,18.771-3.348,25.616-10.045c6.844-6.697,10.265-15.033,10.265-25.014C386.791,207.595,383.37,199.421,376.526,192.791z"
		/>
	<path fill="#212121" d="M90.134,187.046c-3.176-1.487-6.184-2.473-9.03-2.956c-2.845-0.479-7.417-0.72-13.72-0.72H50.97v68.213
		h16.809c6.564,0,11.662-0.449,15.295-1.348c3.635-0.893,6.666-2.033,9.094-3.412c2.432-1.377,4.65-3.076,6.664-5.086
		c6.477-6.566,9.717-14.859,9.717-24.887c0-9.846-3.326-17.879-9.979-24.094C96.116,190.439,93.306,188.534,90.134,187.046z"/>
</g>
</svg>
